<svg width="81" height="40" viewBox="0 0 81 40" version="1.1" xmlns="http://www.w3.org/2000/svg" xmlns:xlink="http://www.w3.org/1999/xlink">
<title>logo</title>
<desc>Created using Figma</desc>
<g id="Canvas" transform="translate(1439 -20)">
<g id="logo">
<g id="Vector">
<use xlink:href="#path0_fill" transform="translate(-1439 20)" fill="#FFFFFF"/>
</g>
<g id="Vector">
<use xlink:href="#path1_fill" transform="translate(-1405.25 23.1818)" fill="url(#paint1_linear)"/>
</g>
<g id="Vector">
<use xlink:href="#path2_fill" transform="translate(-1436.68 22.3441)" fill="#004E9E"/>
</g>
<g id="Vector">
<use xlink:href="#path3_fill" transform="translate(-1367.52 29.7881)" fill="#FFFFFF"/>
</g>
</g>
</g>
<defs>
<linearGradient id="paint1_linear" x1="0" y1="0" x2="1" y2="0" gradientUnits="userSpaceOnUse" gradientTransform="matrix(0 -34.4273 34.4273 0 4.89541 34.4617)">
<stop offset="0" stop-color="#B8002C"/>
<stop offset="0.2" stop-color="#BE0C26"/>
<stop offset="0.55" stop-color="#D02B18"/>
<stop offset="1" stop-color="#EB5C00"/>
</linearGradient>
<path id="path0_fill" fill-rule="evenodd" d="M 0.244525 12.2476C 0.438997 8.98737 1.38848 6.75665 4.24837 5.31527C 12.2847 1.21419 30.4049 0.0416342 40.1057 0.00159576C 49.1944 -0.0384427 58.7521 0.67081 67.6178 2.59837C 70.4966 3.15884 73.2955 4.07132 75.9515 5.31527C 78.4854 6.5965 79.555 8.54122 79.8695 11.4011C 80.4129 17.108 80.4129 22.8536 79.8695 28.5604C 79.555 31.4203 78.4854 33.3765 75.9572 34.6634C 73.2996 35.9096 70.4988 36.8241 67.6178 37.3861C 58.7521 39.3193 49.1944 40 40.1057 40C 30.382 39.96 12.2847 38.7874 4.23121 34.692C 1.37132 33.2449 0.438997 31.0142 0.227366 27.754C -0.0757885 22.5954 -0.0757885 17.4234 0.227366 12.2648"/>
<path id="path1_fill" d="M 11.3788 18.0516C 11.3788 20.7514 12.4541 21.718 14.3645 21.718C 15.0736 21.7081 15.7773 21.5924 16.4522 21.3748L 16.4522 14.3452C 15.7674 14.1544 15.0581 14.0657 14.3473 14.0821C 12.6314 14.0821 11.3788 15.226 11.3788 18.0516ZM 22.355 17.8343C 22.355 20.2709 23.0357 21.7409 25.0548 21.7409C 27.0738 21.7409 27.8003 19.922 27.8003 17.8972C 27.8003 15.8724 27.2283 14.0135 25.1406 14.0135C 23.253 14.0135 22.355 15.6608 22.355 17.8343ZM 19.764 17.8972C 19.764 14.0592 21.9604 11.8628 25.1005 11.8628C 28.5896 11.8628 30.4085 14.1221 30.4085 17.8343C 30.4085 21.718 28.6125 23.8915 25.0319 23.8915C 21.4513 23.8915 19.764 21.8324 19.764 17.8972ZM 31.1292 23.2795L 31.1292 13.8819C 31.1292 12.8295 31.3923 12.2575 32.6049 12.0573C 33.1769 11.9944 34.7326 11.8628 35.4648 11.8628C 39.3542 11.8628 41.0873 13.4186 41.0873 17.4854L 41.0873 23.2795C 41.0873 23.6112 41.0015 23.6513 40.6698 23.6513L 38.9538 23.6513C 38.6678 23.6513 38.5363 23.6112 38.5363 23.2795L 38.5363 17.4396C 38.5363 15.1517 37.8785 14.0592 35.419 14.0592C 34.844 14.0421 34.2688 14.0862 33.7031 14.1908L 33.7031 23.2795C 33.7031 23.6112 33.6116 23.6513 33.2855 23.6513L 31.5696 23.6513C 31.2836 23.6513 31.1521 23.6112 31.1521 23.2795L 31.1292 23.2795ZM 16.4522 7.99625C 16.4522 7.67022 16.5609 7.62446 16.8926 7.62446L 18.6086 7.62446C 18.8946 7.62446 19.0261 7.67022 19.0261 7.99625L 19.0261 22.5531C 19.0261 23.697 15.0223 23.8915 14.0213 23.8915C 10.0861 23.8915 8.70193 21.5693 8.70193 18.0516C 8.70193 14.7799 10.3035 11.8857 14.0785 11.8857C 14.8702 11.8723 15.6603 11.9607 16.4293 12.1488L 16.4522 7.99625ZM 10.2119 9.2832C 8.25578 15.1059 6.29581 20.9287 4.33202 26.7514C 3.37109 29.6113 2.84487 31.8306 0.762876 33.1175C 0.597119 33.2263 0.423085 33.3219 0.242376 33.4035C 0.154002 33.4586 0.0844235 33.5392 0.0428306 33.6347C 0.00123763 33.7302 -0.0104129 33.8361 0.00941664 33.9383C 0.0292462 34.0406 0.0796229 34.1344 0.153895 34.2074C 0.228167 34.2804 0.322839 34.3292 0.425409 34.3473C 0.6542 34.3473 0.894431 34.3473 1.13466 34.3473C 12.8144 34.7934 32.7421 33.4607 40.6755 29.5712C 42.9634 28.4273 43.8156 26.7857 43.9987 23.8972C 44.2389 19.962 44.3876 12.7551 43.9186 8.94001C 43.6269 6.5663 42.7289 5.12492 40.6755 4.11824C 36.7574 2.19639 30.0024 0.863686 22.1434 0.114395C 21.3484 0.0400384 20.6219 6.54576e-08 19.947 6.54576e-08C 13.2091 6.54576e-08 12.0938 3.66066 10.2234 9.24888"/>
<path id="path2_fill" fill-rule="evenodd" d="M 6.38757 24.0314L 6.38757 18.6262L 9.96815 18.6262C 14.3609 18.6262 15.116 15.3373 15.116 13.7872C 15.116 11.0303 13.0969 9.09703 10.1741 9.09703L 4.94619 9.09703C 4.00242 9.09703 3.71644 9.53745 3.71644 10.3497L 3.71644 24.0314C 3.71644 24.4032 3.88803 24.489 4.21978 24.489L 5.86707 24.489C 6.28462 24.489 6.37041 24.4489 6.37041 24.0314L 6.38757 24.0314ZM 12.3419 13.9646C 12.3419 12.9579 11.8156 11.5165 9.64212 11.5165L 6.38757 11.5165L 6.38757 16.3669L 9.68216 16.3669C 11.5239 16.3669 12.3361 15.3602 12.3361 13.9646L 12.3419 13.9646ZM 25.5317 18.6719C 25.5317 14.9598 23.7071 12.7005 20.218 12.7005C 17.0778 12.7005 14.8814 14.8969 14.8814 18.7406C 14.8814 22.5843 16.5974 24.7292 20.1494 24.7292C 23.7013 24.7292 25.5317 22.5557 25.5317 18.6719ZM 22.9177 18.7406C 22.9177 16.63 22.3457 14.8511 20.2638 14.8511C 18.3705 14.8511 17.4725 16.4984 17.4725 18.6719C 17.4725 21.1086 18.1532 22.5785 20.1722 22.5785C 22.1913 22.5785 22.9177 20.7597 22.9177 18.7406ZM 29.0379 8.81676C 29.0379 8.48502 28.9292 8.43926 28.5975 8.43926L 26.8815 8.43926C 26.5955 8.43926 26.464 8.48502 26.464 8.81676L 26.464 24.0657C 26.464 24.3917 26.5955 24.4375 26.8815 24.4375L 28.5975 24.4375C 28.9292 24.4375 29.0379 24.3917 29.0379 24.0657L 29.0379 8.81676ZM 3.56772 4.98451C 11.4038 1.1351 31.9264 -0.35776 43.772 0.0712232L 44.5785 0.105542C 44.6748 0.0943516 44.7721 0.115686 44.8549 0.166153C 44.9377 0.21662 45.0013 0.293322 45.0355 0.38406C 45.0697 0.474799 45.0725 0.574363 45.0436 0.666921C 45.0147 0.759479 44.9557 0.839716 44.876 0.894871C 42.0675 2.0903 41.0094 4.2581 39.9741 7.42114C 38.3611 12.3783 36.7462 17.3354 35.1295 22.2926L 34.9865 22.2926C 34.6032 20.9656 34.2257 19.6386 33.8425 18.2887L 32.3496 13.2381C 32.2867 12.9979 32.2181 12.9522 31.8863 12.9522L 29.8844 12.9522C 29.6671 12.9522 29.5813 13.0608 29.6442 13.261L 32.9388 23.3564C 33.2648 24.386 33.6252 24.2544 34.5632 24.2544C 32.2753 30.9008 31.9435 35.305 22.9921 34.55C 14.7556 33.8293 7.63448 32.4623 3.57344 30.4718C 1.48572 29.4137 0.593437 27.9323 0.313168 25.4899C -0.104389 20.2876 -0.104389 15.0601 0.313168 9.85776C 0.599157 7.45546 1.49716 5.99691 3.562 4.98451"/>
<path id="path3_fill" fill-rule="evenodd" d="M 1.23547 1.65302L 1.60154 1.65302C 1.72468 1.66732 1.84914 1.64122 1.95616 1.57866C 1.98708 1.55409 2.01193 1.52275 2.02879 1.48704C 2.04566 1.45133 2.05407 1.41223 2.0534 1.37275C 2.05314 1.31975 2.03722 1.26801 2.00764 1.22403C 1.97419 1.1795 1.92847 1.14571 1.87609 1.1268C 1.7797 1.09813 1.67904 1.08651 1.57866 1.09248L 1.23547 1.09248L 1.23547 1.65302ZM 0.932322 2.69973L 1.23547 2.69973L 1.23547 1.91041L 1.41279 1.91041C 1.49743 1.90616 1.58132 1.92813 1.65302 1.97332C 1.78235 2.09883 1.88881 2.24594 1.9676 2.40803L 2.13347 2.69973L 2.49954 2.69973L 2.27075 2.33939C 2.1934 2.2056 2.10131 2.0809 1.99621 1.9676C 1.94981 1.92487 1.89536 1.89182 1.83605 1.87037C 1.98293 1.86526 2.1222 1.80382 2.22499 1.69877C 2.27259 1.65288 2.31033 1.59776 2.3359 1.53679C 2.36147 1.47581 2.37433 1.41026 2.3737 1.34415C 2.37209 1.24717 2.34009 1.15314 2.28219 1.07532C 2.22762 0.988954 2.14471 0.92425 2.04768 0.892285C 1.89306 0.850616 1.7329 0.833249 1.57294 0.840807L 0.932322 0.840807L 0.932322 2.69973ZM 1.69305 0.303148C 1.44526 0.305489 1.20179 0.368322 0.983802 0.486181C 0.744679 0.605627 0.545819 0.792555 0.411825 1.02384C 0.284186 1.24257 0.216927 1.49128 0.216927 1.74453C 0.216927 1.99778 0.284186 2.24649 0.411825 2.46522C 0.534563 2.69176 0.721654 2.87685 0.949485 2.99716C 1.1671 3.12245 1.41337 3.18944 1.66446 3.19164C 1.91735 3.18939 2.16545 3.12244 2.38515 2.99716C 2.61026 2.87514 2.79507 2.69034 2.91709 2.46522C 3.04061 2.24509 3.10559 1.99695 3.10583 1.74453C 3.10624 1.49128 3.03911 1.24251 2.91136 1.02384C 2.80709 0.797066 2.64045 0.604637 2.43091 0.469022C 2.21292 0.351162 1.96945 0.28833 1.72165 0.285989L 1.69305 0.303148ZM 1.72165 1.74554e-07C 2.01988 0.00221065 2.31283 0.0788888 2.5739 0.223071C 2.84735 0.368811 3.07207 0.591539 3.22024 0.863687C 3.37194 1.12639 3.45274 1.42402 3.45474 1.72737C 3.45196 2.02988 3.3733 2.32685 3.22595 2.59106C 3.07673 2.86046 2.85474 3.08245 2.58534 3.23167C 2.32357 3.37953 2.02802 3.45723 1.72737 3.45723C 1.42672 3.45723 1.13118 3.37953 0.869404 3.23167C 0.600002 3.08245 0.378012 2.86046 0.228792 2.59106C 0.0814511 2.32685 0.00278303 2.02988 2.43849e-14 1.72737C 0.00200065 1.42402 0.0828149 1.12639 0.234513 0.863687C 0.382678 0.591539 0.607392 0.368811 0.880846 0.223071C 1.14191 0.0788888 1.43486 0.00221065 1.73309 1.74554e-07"/>
</defs>
</svg>
